<mxfile host="app.diagrams.net" modified="2023-03-15T09:53:23.936Z" agent="5.0 (Windows NT 10.0; Win64; x64) AppleWebKit/537.36 (KHTML, like Gecko) Chrome/110.0.0.0 Safari/537.36 Edg/110.0.1587.69" etag="HPF7XSggcDcdfTE-U8r8" version="21.0.6" type="github">
  <diagram id="C5RBs43oDa-KdzZeNtuy" name="Page-1">
    <mxGraphModel dx="1185" dy="1138" grid="1" gridSize="10" guides="1" tooltips="1" connect="1" arrows="1" fold="1" page="1" pageScale="1" pageWidth="827" pageHeight="1169" math="0" shadow="0">
      <root>
        <mxCell id="WIyWlLk6GJQsqaUBKTNV-0" />
        <mxCell id="WIyWlLk6GJQsqaUBKTNV-1" parent="WIyWlLk6GJQsqaUBKTNV-0" />
        <mxCell id="jvYdk_ujipmIe7CMrrBQ-0" value="Home" style="rounded=0;whiteSpace=wrap;html=1;" parent="WIyWlLk6GJQsqaUBKTNV-1" vertex="1">
          <mxGeometry x="320" y="40" width="120" height="60" as="geometry" />
        </mxCell>
        <mxCell id="jvYdk_ujipmIe7CMrrBQ-1" value="What pages it can access" style="rhombus;whiteSpace=wrap;html=1;" parent="WIyWlLk6GJQsqaUBKTNV-1" vertex="1">
          <mxGeometry x="320" y="160" width="120" height="120" as="geometry" />
        </mxCell>
        <mxCell id="jvYdk_ujipmIe7CMrrBQ-3" value="" style="endArrow=classic;html=1;rounded=0;exitX=0.5;exitY=1;exitDx=0;exitDy=0;" parent="WIyWlLk6GJQsqaUBKTNV-1" source="jvYdk_ujipmIe7CMrrBQ-0" target="jvYdk_ujipmIe7CMrrBQ-1" edge="1">
          <mxGeometry width="50" height="50" relative="1" as="geometry">
            <mxPoint x="210" y="120" as="sourcePoint" />
            <mxPoint x="210" y="210" as="targetPoint" />
          </mxGeometry>
        </mxCell>
        <mxCell id="jvYdk_ujipmIe7CMrrBQ-5" value="" style="endArrow=classic;html=1;rounded=0;exitX=0.5;exitY=1;exitDx=0;exitDy=0;edgeStyle=orthogonalEdgeStyle;entryX=0.5;entryY=0;entryDx=0;entryDy=0;" parent="WIyWlLk6GJQsqaUBKTNV-1" source="jvYdk_ujipmIe7CMrrBQ-1" target="jvYdk_ujipmIe7CMrrBQ-12" edge="1">
          <mxGeometry width="50" height="50" relative="1" as="geometry">
            <mxPoint x="210" y="120" as="sourcePoint" />
            <mxPoint x="160" y="400" as="targetPoint" />
            <Array as="points">
              <mxPoint x="380" y="320" />
              <mxPoint x="60" y="320" />
            </Array>
          </mxGeometry>
        </mxCell>
        <mxCell id="jvYdk_ujipmIe7CMrrBQ-7" value="" style="endArrow=classic;html=1;rounded=0;" parent="WIyWlLk6GJQsqaUBKTNV-1" edge="1">
          <mxGeometry width="50" height="50" relative="1" as="geometry">
            <mxPoint x="219.5" y="320" as="sourcePoint" />
            <mxPoint x="219.5" y="400" as="targetPoint" />
          </mxGeometry>
        </mxCell>
        <mxCell id="jvYdk_ujipmIe7CMrrBQ-9" value="" style="endArrow=classic;html=1;rounded=0;" parent="WIyWlLk6GJQsqaUBKTNV-1" edge="1">
          <mxGeometry width="50" height="50" relative="1" as="geometry">
            <mxPoint x="379.5" y="320" as="sourcePoint" />
            <mxPoint x="379.5" y="400" as="targetPoint" />
          </mxGeometry>
        </mxCell>
        <mxCell id="jvYdk_ujipmIe7CMrrBQ-10" value="" style="endArrow=classic;html=1;rounded=0;exitX=0.5;exitY=1;exitDx=0;exitDy=0;edgeStyle=orthogonalEdgeStyle;entryX=0.5;entryY=0;entryDx=0;entryDy=0;" parent="WIyWlLk6GJQsqaUBKTNV-1" source="jvYdk_ujipmIe7CMrrBQ-1" target="jvYdk_ujipmIe7CMrrBQ-16" edge="1">
          <mxGeometry width="50" height="50" relative="1" as="geometry">
            <mxPoint x="390" y="290" as="sourcePoint" />
            <mxPoint x="720" y="400" as="targetPoint" />
            <Array as="points">
              <mxPoint x="380" y="320" />
              <mxPoint x="980" y="320" />
            </Array>
          </mxGeometry>
        </mxCell>
        <mxCell id="jvYdk_ujipmIe7CMrrBQ-11" value="" style="endArrow=classic;html=1;rounded=0;entryX=0.5;entryY=0;entryDx=0;entryDy=0;" parent="WIyWlLk6GJQsqaUBKTNV-1" target="jvYdk_ujipmIe7CMrrBQ-72" edge="1">
          <mxGeometry width="50" height="50" relative="1" as="geometry">
            <mxPoint x="579.5" y="320" as="sourcePoint" />
            <mxPoint x="579.5" y="400" as="targetPoint" />
          </mxGeometry>
        </mxCell>
        <mxCell id="jvYdk_ujipmIe7CMrrBQ-12" value="About Us" style="rounded=0;whiteSpace=wrap;html=1;" parent="WIyWlLk6GJQsqaUBKTNV-1" vertex="1">
          <mxGeometry y="400" width="120" height="60" as="geometry" />
        </mxCell>
        <mxCell id="jvYdk_ujipmIe7CMrrBQ-13" value="Contact Us" style="rounded=0;whiteSpace=wrap;html=1;" parent="WIyWlLk6GJQsqaUBKTNV-1" vertex="1">
          <mxGeometry x="160" y="400" width="120" height="60" as="geometry" />
        </mxCell>
        <mxCell id="jvYdk_ujipmIe7CMrrBQ-14" value="Support/Help&lt;br&gt;(Enquiry)" style="rounded=0;whiteSpace=wrap;html=1;" parent="WIyWlLk6GJQsqaUBKTNV-1" vertex="1">
          <mxGeometry x="320" y="400" width="120" height="60" as="geometry" />
        </mxCell>
        <mxCell id="jvYdk_ujipmIe7CMrrBQ-15" value="SignIn" style="rounded=0;whiteSpace=wrap;html=1;" parent="WIyWlLk6GJQsqaUBKTNV-1" vertex="1">
          <mxGeometry x="520" y="680" width="120" height="60" as="geometry" />
        </mxCell>
        <mxCell id="jvYdk_ujipmIe7CMrrBQ-16" value="Booking" style="rounded=0;whiteSpace=wrap;html=1;" parent="WIyWlLk6GJQsqaUBKTNV-1" vertex="1">
          <mxGeometry x="920" y="400" width="120" height="60" as="geometry" />
        </mxCell>
        <mxCell id="jvYdk_ujipmIe7CMrrBQ-30" value="Using Navigation bar" style="rounded=1;whiteSpace=wrap;html=1;" parent="WIyWlLk6GJQsqaUBKTNV-1" vertex="1">
          <mxGeometry x="60" y="190" width="120" height="60" as="geometry" />
        </mxCell>
        <mxCell id="jvYdk_ujipmIe7CMrrBQ-39" value="FAQ" style="rounded=0;whiteSpace=wrap;html=1;" parent="WIyWlLk6GJQsqaUBKTNV-1" vertex="1">
          <mxGeometry x="330" y="480" width="80" height="40" as="geometry" />
        </mxCell>
        <mxCell id="jvYdk_ujipmIe7CMrrBQ-40" value="Email" style="rounded=0;whiteSpace=wrap;html=1;" parent="WIyWlLk6GJQsqaUBKTNV-1" vertex="1">
          <mxGeometry x="330" y="650" width="80" height="40" as="geometry" />
        </mxCell>
        <mxCell id="jvYdk_ujipmIe7CMrrBQ-41" value="" style="endArrow=none;html=1;rounded=0;entryX=0;entryY=1;entryDx=0;entryDy=0;exitX=0;exitY=0.5;exitDx=0;exitDy=0;edgeStyle=orthogonalEdgeStyle;" parent="WIyWlLk6GJQsqaUBKTNV-1" source="jvYdk_ujipmIe7CMrrBQ-40" target="jvYdk_ujipmIe7CMrrBQ-14" edge="1">
          <mxGeometry width="50" height="50" relative="1" as="geometry">
            <mxPoint x="300" y="570" as="sourcePoint" />
            <mxPoint x="350" y="520" as="targetPoint" />
          </mxGeometry>
        </mxCell>
        <mxCell id="jvYdk_ujipmIe7CMrrBQ-42" value="" style="endArrow=none;html=1;rounded=0;exitX=0;exitY=0.5;exitDx=0;exitDy=0;" parent="WIyWlLk6GJQsqaUBKTNV-1" source="jvYdk_ujipmIe7CMrrBQ-39" edge="1">
          <mxGeometry width="50" height="50" relative="1" as="geometry">
            <mxPoint x="520" y="570" as="sourcePoint" />
            <mxPoint x="320" y="500" as="targetPoint" />
          </mxGeometry>
        </mxCell>
        <mxCell id="jvYdk_ujipmIe7CMrrBQ-44" value="" style="endArrow=none;html=1;rounded=0;entryX=1;entryY=0.25;entryDx=0;entryDy=0;exitX=1;exitY=0.5;exitDx=0;exitDy=0;edgeStyle=orthogonalEdgeStyle;startArrow=classic;startFill=1;dashed=1;" parent="WIyWlLk6GJQsqaUBKTNV-1" source="jvYdk_ujipmIe7CMrrBQ-45" target="jvYdk_ujipmIe7CMrrBQ-39" edge="1">
          <mxGeometry width="50" height="50" relative="1" as="geometry">
            <mxPoint x="440" y="550" as="sourcePoint" />
            <mxPoint x="330" y="470" as="targetPoint" />
            <Array as="points">
              <mxPoint x="430" y="550" />
              <mxPoint x="430" y="490" />
            </Array>
          </mxGeometry>
        </mxCell>
        <mxCell id="jvYdk_ujipmIe7CMrrBQ-45" value="Type of Question" style="rounded=0;whiteSpace=wrap;html=1;" parent="WIyWlLk6GJQsqaUBKTNV-1" vertex="1">
          <mxGeometry x="330" y="530" width="80" height="40" as="geometry" />
        </mxCell>
        <mxCell id="jvYdk_ujipmIe7CMrrBQ-46" value="" style="endArrow=classic;html=1;rounded=0;entryX=0.5;entryY=0;entryDx=0;entryDy=0;" parent="WIyWlLk6GJQsqaUBKTNV-1" target="jvYdk_ujipmIe7CMrrBQ-47" edge="1">
          <mxGeometry width="50" height="50" relative="1" as="geometry">
            <mxPoint x="369.5" y="570" as="sourcePoint" />
            <mxPoint x="370" y="610" as="targetPoint" />
          </mxGeometry>
        </mxCell>
        <mxCell id="jvYdk_ujipmIe7CMrrBQ-47" value="Answer" style="rounded=0;whiteSpace=wrap;html=1;" parent="WIyWlLk6GJQsqaUBKTNV-1" vertex="1">
          <mxGeometry x="330" y="600" width="80" height="40" as="geometry" />
        </mxCell>
        <mxCell id="jvYdk_ujipmIe7CMrrBQ-49" value="" style="endArrow=classic;html=1;rounded=0;exitX=1;exitY=0.5;exitDx=0;exitDy=0;entryX=0;entryY=0.5;entryDx=0;entryDy=0;" parent="WIyWlLk6GJQsqaUBKTNV-1" source="jvYdk_ujipmIe7CMrrBQ-72" target="jvYdk_ujipmIe7CMrrBQ-50" edge="1">
          <mxGeometry width="50" height="50" relative="1" as="geometry">
            <mxPoint x="759.5" y="440" as="sourcePoint" />
            <mxPoint x="750" y="380" as="targetPoint" />
          </mxGeometry>
        </mxCell>
        <mxCell id="jvYdk_ujipmIe7CMrrBQ-50" value="Sign Up" style="rounded=0;whiteSpace=wrap;html=1;" parent="WIyWlLk6GJQsqaUBKTNV-1" vertex="1">
          <mxGeometry x="700" y="430" width="120" height="60" as="geometry" />
        </mxCell>
        <mxCell id="jvYdk_ujipmIe7CMrrBQ-51" value="" style="endArrow=none;dashed=1;html=1;dashPattern=1 3;strokeWidth=2;rounded=0;exitX=1;exitY=0;exitDx=0;exitDy=0;entryX=0;entryY=0.5;entryDx=0;entryDy=0;edgeStyle=orthogonalEdgeStyle;" parent="WIyWlLk6GJQsqaUBKTNV-1" source="jvYdk_ujipmIe7CMrrBQ-54" target="jvYdk_ujipmIe7CMrrBQ-52" edge="1">
          <mxGeometry width="50" height="50" relative="1" as="geometry">
            <mxPoint x="1300" y="480" as="sourcePoint" />
            <mxPoint x="1100" y="430" as="targetPoint" />
            <Array as="points">
              <mxPoint x="995" y="510" />
            </Array>
          </mxGeometry>
        </mxCell>
        <mxCell id="jvYdk_ujipmIe7CMrrBQ-52" value="Verify User Sign In&amp;nbsp;&lt;br&gt;ald or not&amp;nbsp;" style="rounded=1;whiteSpace=wrap;html=1;" parent="WIyWlLk6GJQsqaUBKTNV-1" vertex="1">
          <mxGeometry x="1060" y="490" width="120" height="40" as="geometry" />
        </mxCell>
        <mxCell id="jvYdk_ujipmIe7CMrrBQ-59" style="rounded=0;orthogonalLoop=1;jettySize=auto;html=1;entryX=0;entryY=0.5;entryDx=0;entryDy=0;" parent="WIyWlLk6GJQsqaUBKTNV-1" source="jvYdk_ujipmIe7CMrrBQ-54" target="jvYdk_ujipmIe7CMrrBQ-58" edge="1">
          <mxGeometry relative="1" as="geometry" />
        </mxCell>
        <mxCell id="jvYdk_ujipmIe7CMrrBQ-54" value="Select Any Ride&amp;nbsp;&lt;br&gt;Services" style="rhombus;whiteSpace=wrap;html=1;" parent="WIyWlLk6GJQsqaUBKTNV-1" vertex="1">
          <mxGeometry x="920" y="525" width="120" height="120" as="geometry" />
        </mxCell>
        <mxCell id="jvYdk_ujipmIe7CMrrBQ-55" value="" style="endArrow=classic;html=1;rounded=0;entryX=0.5;entryY=0;entryDx=0;entryDy=0;exitX=0.5;exitY=1;exitDx=0;exitDy=0;" parent="WIyWlLk6GJQsqaUBKTNV-1" source="jvYdk_ujipmIe7CMrrBQ-16" target="jvYdk_ujipmIe7CMrrBQ-54" edge="1">
          <mxGeometry width="50" height="50" relative="1" as="geometry">
            <mxPoint x="789.5" y="330" as="sourcePoint" />
            <mxPoint x="790" y="410" as="targetPoint" />
          </mxGeometry>
        </mxCell>
        <mxCell id="jvYdk_ujipmIe7CMrrBQ-56" value="" style="endArrow=classic;html=1;rounded=0;exitX=0.5;exitY=1;exitDx=0;exitDy=0;entryX=0.5;entryY=0;entryDx=0;entryDy=0;" parent="WIyWlLk6GJQsqaUBKTNV-1" source="jvYdk_ujipmIe7CMrrBQ-54" target="jvYdk_ujipmIe7CMrrBQ-64" edge="1">
          <mxGeometry width="50" height="50" relative="1" as="geometry">
            <mxPoint x="990" y="470" as="sourcePoint" />
            <mxPoint x="980" y="640" as="targetPoint" />
          </mxGeometry>
        </mxCell>
        <mxCell id="jvYdk_ujipmIe7CMrrBQ-58" value="Sign In" style="rounded=0;whiteSpace=wrap;html=1;" parent="WIyWlLk6GJQsqaUBKTNV-1" vertex="1">
          <mxGeometry x="1100" y="565" width="120" height="40" as="geometry" />
        </mxCell>
        <mxCell id="jvYdk_ujipmIe7CMrrBQ-60" value="No" style="text;html=1;align=center;verticalAlign=middle;resizable=0;points=[];autosize=1;strokeColor=none;fillColor=none;" parent="WIyWlLk6GJQsqaUBKTNV-1" vertex="1">
          <mxGeometry x="1050" y="555" width="40" height="30" as="geometry" />
        </mxCell>
        <mxCell id="jvYdk_ujipmIe7CMrrBQ-63" value="Yes" style="text;html=1;align=center;verticalAlign=middle;resizable=0;points=[];autosize=1;strokeColor=none;fillColor=none;" parent="WIyWlLk6GJQsqaUBKTNV-1" vertex="1">
          <mxGeometry x="990" y="655" width="40" height="30" as="geometry" />
        </mxCell>
        <mxCell id="jvYdk_ujipmIe7CMrrBQ-64" value="Booking (user input detail)" style="rounded=0;whiteSpace=wrap;html=1;" parent="WIyWlLk6GJQsqaUBKTNV-1" vertex="1">
          <mxGeometry x="920" y="710" width="120" height="60" as="geometry" />
        </mxCell>
        <mxCell id="jvYdk_ujipmIe7CMrrBQ-66" value="Calculate Total Amount" style="rounded=0;whiteSpace=wrap;html=1;" parent="WIyWlLk6GJQsqaUBKTNV-1" vertex="1">
          <mxGeometry x="920" y="840" width="120" height="60" as="geometry" />
        </mxCell>
        <mxCell id="jvYdk_ujipmIe7CMrrBQ-67" value="" style="endArrow=classic;html=1;rounded=0;exitX=0.5;exitY=1;exitDx=0;exitDy=0;entryX=0.5;entryY=0;entryDx=0;entryDy=0;" parent="WIyWlLk6GJQsqaUBKTNV-1" source="jvYdk_ujipmIe7CMrrBQ-64" target="jvYdk_ujipmIe7CMrrBQ-66" edge="1">
          <mxGeometry width="50" height="50" relative="1" as="geometry">
            <mxPoint x="990" y="655" as="sourcePoint" />
            <mxPoint x="990" y="720" as="targetPoint" />
          </mxGeometry>
        </mxCell>
        <mxCell id="jvYdk_ujipmIe7CMrrBQ-68" value="Payment" style="rounded=0;whiteSpace=wrap;html=1;" parent="WIyWlLk6GJQsqaUBKTNV-1" vertex="1">
          <mxGeometry x="920" y="960" width="120" height="60" as="geometry" />
        </mxCell>
        <mxCell id="jvYdk_ujipmIe7CMrrBQ-69" value="" style="endArrow=classic;html=1;rounded=0;entryX=0.5;entryY=0;entryDx=0;entryDy=0;exitX=0.5;exitY=1;exitDx=0;exitDy=0;" parent="WIyWlLk6GJQsqaUBKTNV-1" source="jvYdk_ujipmIe7CMrrBQ-66" target="jvYdk_ujipmIe7CMrrBQ-68" edge="1">
          <mxGeometry width="50" height="50" relative="1" as="geometry">
            <mxPoint x="1060" y="930" as="sourcePoint" />
            <mxPoint x="990" y="840" as="targetPoint" />
          </mxGeometry>
        </mxCell>
        <mxCell id="jvYdk_ujipmIe7CMrrBQ-70" value="Receipt" style="rounded=0;whiteSpace=wrap;html=1;" parent="WIyWlLk6GJQsqaUBKTNV-1" vertex="1">
          <mxGeometry x="920" y="1080" width="120" height="60" as="geometry" />
        </mxCell>
        <mxCell id="jvYdk_ujipmIe7CMrrBQ-71" value="" style="endArrow=classic;html=1;rounded=0;entryX=0.5;entryY=0;entryDx=0;entryDy=0;exitX=0.5;exitY=1;exitDx=0;exitDy=0;" parent="WIyWlLk6GJQsqaUBKTNV-1" target="jvYdk_ujipmIe7CMrrBQ-70" edge="1">
          <mxGeometry width="50" height="50" relative="1" as="geometry">
            <mxPoint x="980" y="1020" as="sourcePoint" />
            <mxPoint x="990" y="960" as="targetPoint" />
          </mxGeometry>
        </mxCell>
        <mxCell id="jvYdk_ujipmIe7CMrrBQ-72" value="Have an account" style="rhombus;whiteSpace=wrap;html=1;" parent="WIyWlLk6GJQsqaUBKTNV-1" vertex="1">
          <mxGeometry x="520" y="400" width="120" height="120" as="geometry" />
        </mxCell>
        <mxCell id="jvYdk_ujipmIe7CMrrBQ-73" value="" style="endArrow=classic;html=1;rounded=0;exitX=0.5;exitY=1;exitDx=0;exitDy=0;entryX=0.5;entryY=0;entryDx=0;entryDy=0;" parent="WIyWlLk6GJQsqaUBKTNV-1" source="jvYdk_ujipmIe7CMrrBQ-50" target="jvYdk_ujipmIe7CMrrBQ-74" edge="1">
          <mxGeometry width="50" height="50" relative="1" as="geometry">
            <mxPoint x="730" y="620" as="sourcePoint" />
            <mxPoint x="760" y="570" as="targetPoint" />
          </mxGeometry>
        </mxCell>
        <mxCell id="jvYdk_ujipmIe7CMrrBQ-77" style="edgeStyle=orthogonalEdgeStyle;rounded=0;orthogonalLoop=1;jettySize=auto;html=1;entryX=1;entryY=0.5;entryDx=0;entryDy=0;" parent="WIyWlLk6GJQsqaUBKTNV-1" source="jvYdk_ujipmIe7CMrrBQ-74" target="jvYdk_ujipmIe7CMrrBQ-15" edge="1">
          <mxGeometry relative="1" as="geometry">
            <Array as="points">
              <mxPoint x="760" y="710" />
            </Array>
          </mxGeometry>
        </mxCell>
        <mxCell id="jvYdk_ujipmIe7CMrrBQ-74" value="Verification Page" style="rounded=0;whiteSpace=wrap;html=1;" parent="WIyWlLk6GJQsqaUBKTNV-1" vertex="1">
          <mxGeometry x="700" y="555" width="120" height="60" as="geometry" />
        </mxCell>
        <mxCell id="jvYdk_ujipmIe7CMrrBQ-75" value="No" style="text;html=1;align=center;verticalAlign=middle;resizable=0;points=[];autosize=1;strokeColor=none;fillColor=none;" parent="WIyWlLk6GJQsqaUBKTNV-1" vertex="1">
          <mxGeometry x="640" y="430" width="40" height="30" as="geometry" />
        </mxCell>
        <mxCell id="jvYdk_ujipmIe7CMrrBQ-76" value="" style="endArrow=classic;html=1;rounded=0;entryX=0.5;entryY=0;entryDx=0;entryDy=0;exitX=0.5;exitY=1;exitDx=0;exitDy=0;" parent="WIyWlLk6GJQsqaUBKTNV-1" source="jvYdk_ujipmIe7CMrrBQ-72" target="jvYdk_ujipmIe7CMrrBQ-15" edge="1">
          <mxGeometry width="50" height="50" relative="1" as="geometry">
            <mxPoint x="589.5" y="330" as="sourcePoint" />
            <mxPoint x="590" y="410" as="targetPoint" />
          </mxGeometry>
        </mxCell>
        <mxCell id="jvYdk_ujipmIe7CMrrBQ-78" value="Yes" style="text;html=1;align=center;verticalAlign=middle;resizable=0;points=[];autosize=1;strokeColor=none;fillColor=none;" parent="WIyWlLk6GJQsqaUBKTNV-1" vertex="1">
          <mxGeometry x="590" y="640" width="40" height="30" as="geometry" />
        </mxCell>
        <mxCell id="jvYdk_ujipmIe7CMrrBQ-79" value="" style="endArrow=classic;startArrow=classic;html=1;rounded=0;entryX=0;entryY=1;entryDx=0;entryDy=0;exitX=1;exitY=0;exitDx=0;exitDy=0;" parent="WIyWlLk6GJQsqaUBKTNV-1" source="jvYdk_ujipmIe7CMrrBQ-15" target="jvYdk_ujipmIe7CMrrBQ-50" edge="1">
          <mxGeometry width="50" height="50" relative="1" as="geometry">
            <mxPoint x="620" y="670" as="sourcePoint" />
            <mxPoint x="670" y="620" as="targetPoint" />
          </mxGeometry>
        </mxCell>
        <mxCell id="jvYdk_ujipmIe7CMrrBQ-81" value="Customer" style="rounded=0;whiteSpace=wrap;html=1;" parent="WIyWlLk6GJQsqaUBKTNV-1" vertex="1">
          <mxGeometry x="520" y="1000" width="120" height="60" as="geometry" />
        </mxCell>
        <mxCell id="jvYdk_ujipmIe7CMrrBQ-82" value="Staff" style="rounded=0;whiteSpace=wrap;html=1;" parent="WIyWlLk6GJQsqaUBKTNV-1" vertex="1">
          <mxGeometry x="707" y="870" width="120" height="60" as="geometry" />
        </mxCell>
        <mxCell id="jvYdk_ujipmIe7CMrrBQ-83" value="Who are you" style="rhombus;whiteSpace=wrap;html=1;" parent="WIyWlLk6GJQsqaUBKTNV-1" vertex="1">
          <mxGeometry x="520" y="840" width="120" height="120" as="geometry" />
        </mxCell>
        <mxCell id="jvYdk_ujipmIe7CMrrBQ-84" value="" style="endArrow=classic;html=1;rounded=0;exitX=0.5;exitY=1;exitDx=0;exitDy=0;entryX=0.5;entryY=0;entryDx=0;entryDy=0;" parent="WIyWlLk6GJQsqaUBKTNV-1" source="jvYdk_ujipmIe7CMrrBQ-15" target="jvYdk_ujipmIe7CMrrBQ-83" edge="1">
          <mxGeometry width="50" height="50" relative="1" as="geometry">
            <mxPoint x="740" y="840" as="sourcePoint" />
            <mxPoint x="790" y="790" as="targetPoint" />
          </mxGeometry>
        </mxCell>
        <mxCell id="jvYdk_ujipmIe7CMrrBQ-85" value="" style="endArrow=classic;html=1;rounded=0;exitX=0.5;exitY=1;exitDx=0;exitDy=0;entryX=0.5;entryY=0;entryDx=0;entryDy=0;" parent="WIyWlLk6GJQsqaUBKTNV-1" source="jvYdk_ujipmIe7CMrrBQ-83" target="jvYdk_ujipmIe7CMrrBQ-81" edge="1">
          <mxGeometry width="50" height="50" relative="1" as="geometry">
            <mxPoint x="590" y="750" as="sourcePoint" />
            <mxPoint x="590" y="850" as="targetPoint" />
          </mxGeometry>
        </mxCell>
        <mxCell id="jvYdk_ujipmIe7CMrrBQ-86" value="" style="endArrow=classic;html=1;rounded=0;exitX=1;exitY=0.5;exitDx=0;exitDy=0;entryX=0;entryY=0.5;entryDx=0;entryDy=0;" parent="WIyWlLk6GJQsqaUBKTNV-1" source="jvYdk_ujipmIe7CMrrBQ-83" target="jvYdk_ujipmIe7CMrrBQ-82" edge="1">
          <mxGeometry width="50" height="50" relative="1" as="geometry">
            <mxPoint x="590" y="970" as="sourcePoint" />
            <mxPoint x="590" y="1070" as="targetPoint" />
          </mxGeometry>
        </mxCell>
        <mxCell id="jvYdk_ujipmIe7CMrrBQ-87" value="have a slide small slide for staff" style="rounded=1;whiteSpace=wrap;html=1;" parent="WIyWlLk6GJQsqaUBKTNV-1" vertex="1">
          <mxGeometry x="721" y="720" width="119" height="40" as="geometry" />
        </mxCell>
        <mxCell id="jvYdk_ujipmIe7CMrrBQ-88" value="" style="endArrow=none;dashed=1;html=1;rounded=0;exitX=1;exitY=1;exitDx=0;exitDy=0;entryX=0;entryY=0.5;entryDx=0;entryDy=0;" parent="WIyWlLk6GJQsqaUBKTNV-1" source="jvYdk_ujipmIe7CMrrBQ-15" target="jvYdk_ujipmIe7CMrrBQ-87" edge="1">
          <mxGeometry width="50" height="50" relative="1" as="geometry">
            <mxPoint x="670" y="840" as="sourcePoint" />
            <mxPoint x="720" y="790" as="targetPoint" />
          </mxGeometry>
        </mxCell>
        <mxCell id="jvYdk_ujipmIe7CMrrBQ-89" value="Home Page" style="rounded=0;whiteSpace=wrap;html=1;" parent="WIyWlLk6GJQsqaUBKTNV-1" vertex="1">
          <mxGeometry x="520" y="1109" width="120" height="60" as="geometry" />
        </mxCell>
        <mxCell id="jvYdk_ujipmIe7CMrrBQ-90" value="" style="endArrow=classic;html=1;rounded=0;entryX=0.5;entryY=0;entryDx=0;entryDy=0;exitX=0.5;exitY=1;exitDx=0;exitDy=0;" parent="WIyWlLk6GJQsqaUBKTNV-1" source="jvYdk_ujipmIe7CMrrBQ-81" target="jvYdk_ujipmIe7CMrrBQ-89" edge="1">
          <mxGeometry width="50" height="50" relative="1" as="geometry">
            <mxPoint x="590" y="470" as="sourcePoint" />
            <mxPoint x="590" y="630" as="targetPoint" />
          </mxGeometry>
        </mxCell>
        <mxCell id="jvYdk_ujipmIe7CMrrBQ-91" value="" style="endArrow=none;dashed=1;html=1;rounded=0;entryX=0;entryY=0.5;entryDx=0;entryDy=0;exitX=1;exitY=0;exitDx=0;exitDy=0;" parent="WIyWlLk6GJQsqaUBKTNV-1" source="jvYdk_ujipmIe7CMrrBQ-89" target="jvYdk_ujipmIe7CMrrBQ-92" edge="1">
          <mxGeometry width="50" height="50" relative="1" as="geometry">
            <mxPoint x="640" y="1139" as="sourcePoint" />
            <mxPoint x="720" y="1139" as="targetPoint" />
          </mxGeometry>
        </mxCell>
        <mxCell id="jvYdk_ujipmIe7CMrrBQ-92" value="keep on log in status" style="rounded=1;whiteSpace=wrap;html=1;" parent="WIyWlLk6GJQsqaUBKTNV-1" vertex="1">
          <mxGeometry x="721" y="1089" width="110" height="40" as="geometry" />
        </mxCell>
        <mxCell id="jvYdk_ujipmIe7CMrrBQ-95" value="" style="endArrow=classic;html=1;rounded=0;exitX=0.5;exitY=1;exitDx=0;exitDy=0;entryX=1;entryY=0;entryDx=0;entryDy=0;edgeStyle=orthogonalEdgeStyle;" parent="WIyWlLk6GJQsqaUBKTNV-1" source="jvYdk_ujipmIe7CMrrBQ-58" target="jvYdk_ujipmIe7CMrrBQ-64" edge="1">
          <mxGeometry width="50" height="50" relative="1" as="geometry">
            <mxPoint x="1150" y="670" as="sourcePoint" />
            <mxPoint x="1200" y="620" as="targetPoint" />
            <Array as="points">
              <mxPoint x="1160" y="640" />
              <mxPoint x="1040" y="640" />
            </Array>
          </mxGeometry>
        </mxCell>
        <mxCell id="jvYdk_ujipmIe7CMrrBQ-96" value="MAYBE A DIFFERENT SIGN IN PAGE SO IT WILL NOT CONFUSE WITH THE ANOTHER" style="ellipse;whiteSpace=wrap;html=1;" parent="WIyWlLk6GJQsqaUBKTNV-1" vertex="1">
          <mxGeometry x="1230" y="512" width="200" height="145" as="geometry" />
        </mxCell>
        <mxCell id="jvYdk_ujipmIe7CMrrBQ-97" value="" style="endArrow=none;dashed=1;html=1;rounded=0;exitX=1;exitY=0.5;exitDx=0;exitDy=0;entryX=0;entryY=0.5;entryDx=0;entryDy=0;edgeStyle=orthogonalEdgeStyle;" parent="WIyWlLk6GJQsqaUBKTNV-1" source="jvYdk_ujipmIe7CMrrBQ-30" target="jvYdk_ujipmIe7CMrrBQ-1" edge="1">
          <mxGeometry width="50" height="50" relative="1" as="geometry">
            <mxPoint x="140" y="160" as="sourcePoint" />
            <mxPoint x="190" y="110" as="targetPoint" />
            <Array as="points">
              <mxPoint x="220" y="220" />
              <mxPoint x="220" y="220" />
            </Array>
          </mxGeometry>
        </mxCell>
        <mxCell id="jvYdk_ujipmIe7CMrrBQ-99" value="Provide Email Receipt" style="rounded=1;whiteSpace=wrap;html=1;" parent="WIyWlLk6GJQsqaUBKTNV-1" vertex="1">
          <mxGeometry x="850" y="1240" width="120" height="40" as="geometry" />
        </mxCell>
        <mxCell id="jvYdk_ujipmIe7CMrrBQ-100" value="" style="endArrow=none;dashed=1;html=1;dashPattern=1 3;strokeWidth=2;rounded=0;exitX=0.25;exitY=1;exitDx=0;exitDy=0;entryX=0.5;entryY=0;entryDx=0;entryDy=0;edgeStyle=orthogonalEdgeStyle;" parent="WIyWlLk6GJQsqaUBKTNV-1" source="jvYdk_ujipmIe7CMrrBQ-70" target="jvYdk_ujipmIe7CMrrBQ-99" edge="1">
          <mxGeometry width="50" height="50" relative="1" as="geometry">
            <mxPoint x="1020" y="565" as="sourcePoint" />
            <mxPoint x="1070" y="520" as="targetPoint" />
          </mxGeometry>
        </mxCell>
        <mxCell id="jvYdk_ujipmIe7CMrrBQ-101" value="Enable user to download receipt as pdf" style="rounded=1;whiteSpace=wrap;html=1;" parent="WIyWlLk6GJQsqaUBKTNV-1" vertex="1">
          <mxGeometry x="1001" y="1240" width="159" height="40" as="geometry" />
        </mxCell>
        <mxCell id="jvYdk_ujipmIe7CMrrBQ-102" value="" style="endArrow=none;dashed=1;html=1;dashPattern=1 3;strokeWidth=2;rounded=0;exitX=0.75;exitY=1;exitDx=0;exitDy=0;entryX=0.5;entryY=0;entryDx=0;entryDy=0;edgeStyle=orthogonalEdgeStyle;" parent="WIyWlLk6GJQsqaUBKTNV-1" source="jvYdk_ujipmIe7CMrrBQ-70" target="jvYdk_ujipmIe7CMrrBQ-101" edge="1">
          <mxGeometry width="50" height="50" relative="1" as="geometry">
            <mxPoint x="1040" y="1130" as="sourcePoint" />
            <mxPoint x="1070" y="570" as="targetPoint" />
          </mxGeometry>
        </mxCell>
        <mxCell id="jvYdk_ujipmIe7CMrrBQ-107" value="" style="endArrow=none;dashed=1;html=1;dashPattern=1 3;strokeWidth=2;rounded=0;exitX=1;exitY=1;exitDx=0;exitDy=0;entryX=0;entryY=0.5;entryDx=0;entryDy=0;edgeStyle=orthogonalEdgeStyle;" parent="WIyWlLk6GJQsqaUBKTNV-1" source="jvYdk_ujipmIe7CMrrBQ-68" target="jvYdk_ujipmIe7CMrrBQ-108" edge="1">
          <mxGeometry width="50" height="50" relative="1" as="geometry">
            <mxPoint x="1050" y="1090" as="sourcePoint" />
            <mxPoint x="1160" y="960" as="targetPoint" />
            <Array as="points">
              <mxPoint x="1080" y="1020" />
              <mxPoint x="1080" y="1080" />
            </Array>
          </mxGeometry>
        </mxCell>
        <mxCell id="jvYdk_ujipmIe7CMrrBQ-108" value="PAYMENT&lt;br&gt;METHOD" style="rhombus;whiteSpace=wrap;html=1;" parent="WIyWlLk6GJQsqaUBKTNV-1" vertex="1">
          <mxGeometry x="1120" y="1040" width="80" height="80" as="geometry" />
        </mxCell>
        <mxCell id="jvYdk_ujipmIe7CMrrBQ-109" value="Visa Check" style="rounded=1;whiteSpace=wrap;html=1;" parent="WIyWlLk6GJQsqaUBKTNV-1" vertex="1">
          <mxGeometry x="1241" y="1000" width="120" height="40" as="geometry" />
        </mxCell>
        <mxCell id="jvYdk_ujipmIe7CMrrBQ-110" value="Paypal" style="rounded=1;whiteSpace=wrap;html=1;" parent="WIyWlLk6GJQsqaUBKTNV-1" vertex="1">
          <mxGeometry x="1241" y="1120" width="120" height="40" as="geometry" />
        </mxCell>
        <mxCell id="jvYdk_ujipmIe7CMrrBQ-111" value="MasterCard" style="rounded=1;whiteSpace=wrap;html=1;" parent="WIyWlLk6GJQsqaUBKTNV-1" vertex="1">
          <mxGeometry x="1241" y="1060" width="120" height="40" as="geometry" />
        </mxCell>
        <mxCell id="jvYdk_ujipmIe7CMrrBQ-112" value="" style="endArrow=none;dashed=1;html=1;rounded=0;exitX=0.5;exitY=0;exitDx=0;exitDy=0;entryX=0;entryY=0.5;entryDx=0;entryDy=0;edgeStyle=orthogonalEdgeStyle;" parent="WIyWlLk6GJQsqaUBKTNV-1" source="jvYdk_ujipmIe7CMrrBQ-108" target="jvYdk_ujipmIe7CMrrBQ-109" edge="1">
          <mxGeometry width="50" height="50" relative="1" as="geometry">
            <mxPoint x="1290" y="950" as="sourcePoint" />
            <mxPoint x="1340" y="900" as="targetPoint" />
          </mxGeometry>
        </mxCell>
        <mxCell id="jvYdk_ujipmIe7CMrrBQ-113" value="" style="endArrow=none;dashed=1;html=1;rounded=0;exitX=1;exitY=0.5;exitDx=0;exitDy=0;entryX=0;entryY=0.5;entryDx=0;entryDy=0;" parent="WIyWlLk6GJQsqaUBKTNV-1" source="jvYdk_ujipmIe7CMrrBQ-108" target="jvYdk_ujipmIe7CMrrBQ-111" edge="1">
          <mxGeometry width="50" height="50" relative="1" as="geometry">
            <mxPoint x="1260" y="1060" as="sourcePoint" />
            <mxPoint x="1310" y="1010" as="targetPoint" />
          </mxGeometry>
        </mxCell>
        <mxCell id="jvYdk_ujipmIe7CMrrBQ-114" value="" style="endArrow=none;dashed=1;html=1;rounded=0;exitX=0.5;exitY=1;exitDx=0;exitDy=0;entryX=0;entryY=0.5;entryDx=0;entryDy=0;edgeStyle=orthogonalEdgeStyle;" parent="WIyWlLk6GJQsqaUBKTNV-1" source="jvYdk_ujipmIe7CMrrBQ-108" target="jvYdk_ujipmIe7CMrrBQ-110" edge="1">
          <mxGeometry width="50" height="50" relative="1" as="geometry">
            <mxPoint x="1220" y="1150" as="sourcePoint" />
            <mxPoint x="1270" y="1100" as="targetPoint" />
          </mxGeometry>
        </mxCell>
        <mxCell id="jvYdk_ujipmIe7CMrrBQ-115" value="include goverment tax" style="rounded=1;whiteSpace=wrap;html=1;" parent="WIyWlLk6GJQsqaUBKTNV-1" vertex="1">
          <mxGeometry x="1120" y="790" width="159" height="40" as="geometry" />
        </mxCell>
        <mxCell id="jvYdk_ujipmIe7CMrrBQ-116" value="" style="endArrow=none;dashed=1;html=1;dashPattern=1 3;strokeWidth=2;rounded=0;exitX=1;exitY=0;exitDx=0;exitDy=0;entryX=0;entryY=0.5;entryDx=0;entryDy=0;edgeStyle=orthogonalEdgeStyle;" parent="WIyWlLk6GJQsqaUBKTNV-1" source="jvYdk_ujipmIe7CMrrBQ-66" target="jvYdk_ujipmIe7CMrrBQ-115" edge="1">
          <mxGeometry width="50" height="50" relative="1" as="geometry">
            <mxPoint x="1149" y="380" as="sourcePoint" />
            <mxPoint x="1189" y="90" as="targetPoint" />
          </mxGeometry>
        </mxCell>
        <mxCell id="jvYdk_ujipmIe7CMrrBQ-117" value="include service tax" style="rounded=1;whiteSpace=wrap;html=1;" parent="WIyWlLk6GJQsqaUBKTNV-1" vertex="1">
          <mxGeometry x="1140" y="910" width="159" height="40" as="geometry" />
        </mxCell>
        <mxCell id="jvYdk_ujipmIe7CMrrBQ-119" value="" style="endArrow=none;dashed=1;html=1;rounded=0;exitX=1;exitY=0.75;exitDx=0;exitDy=0;entryX=0;entryY=0.5;entryDx=0;entryDy=0;" parent="WIyWlLk6GJQsqaUBKTNV-1" source="jvYdk_ujipmIe7CMrrBQ-66" target="jvYdk_ujipmIe7CMrrBQ-117" edge="1">
          <mxGeometry width="50" height="50" relative="1" as="geometry">
            <mxPoint x="1360" y="880" as="sourcePoint" />
            <mxPoint x="1410" y="830" as="targetPoint" />
          </mxGeometry>
        </mxCell>
        <mxCell id="jvYdk_ujipmIe7CMrrBQ-120" value="" style="endArrow=none;dashed=1;html=1;rounded=0;exitX=1;exitY=1;exitDx=0;exitDy=0;entryX=0;entryY=0.5;entryDx=0;entryDy=0;" parent="WIyWlLk6GJQsqaUBKTNV-1" source="jvYdk_ujipmIe7CMrrBQ-64" target="jvYdk_ujipmIe7CMrrBQ-121" edge="1">
          <mxGeometry width="50" height="50" relative="1" as="geometry">
            <mxPoint x="1210" y="750" as="sourcePoint" />
            <mxPoint x="1200" y="755" as="targetPoint" />
          </mxGeometry>
        </mxCell>
        <mxCell id="jvYdk_ujipmIe7CMrrBQ-121" value="" style="rhombus;whiteSpace=wrap;html=1;" parent="WIyWlLk6GJQsqaUBKTNV-1" vertex="1">
          <mxGeometry x="1320" y="730" width="80" height="80" as="geometry" />
        </mxCell>
        <mxCell id="s9P6Q5YSlAMFLzRuQU9E-1" value="" style="shape=switch;whiteSpace=wrap;html=1;fillColor=#f8cecc;strokeColor=#b85450;" parent="WIyWlLk6GJQsqaUBKTNV-1" vertex="1">
          <mxGeometry x="430" y="20" width="18" height="18" as="geometry" />
        </mxCell>
        <mxCell id="s9P6Q5YSlAMFLzRuQU9E-2" value="" style="shape=switch;whiteSpace=wrap;html=1;fillColor=#f8cecc;strokeColor=#b85450;" parent="WIyWlLk6GJQsqaUBKTNV-1" vertex="1">
          <mxGeometry x="801" y="415" width="18" height="18" as="geometry" />
        </mxCell>
        <mxCell id="s9P6Q5YSlAMFLzRuQU9E-3" value="" style="shape=switch;whiteSpace=wrap;html=1;fillColor=#f8cecc;strokeColor=#b85450;" parent="WIyWlLk6GJQsqaUBKTNV-1" vertex="1">
          <mxGeometry x="810" y="535" width="18" height="18" as="geometry" />
        </mxCell>
        <mxCell id="s9P6Q5YSlAMFLzRuQU9E-4" value="" style="shape=switch;whiteSpace=wrap;html=1;fillColor=#f8cecc;strokeColor=#b85450;" parent="WIyWlLk6GJQsqaUBKTNV-1" vertex="1">
          <mxGeometry x="630" y="670" width="18" height="18" as="geometry" />
        </mxCell>
        <mxCell id="s9P6Q5YSlAMFLzRuQU9E-5" value="" style="shape=switch;whiteSpace=wrap;html=1;fillColor=#f8cecc;strokeColor=#b85450;" parent="WIyWlLk6GJQsqaUBKTNV-1" vertex="1">
          <mxGeometry x="630" y="980" width="18" height="18" as="geometry" />
        </mxCell>
        <mxCell id="s9P6Q5YSlAMFLzRuQU9E-6" value="" style="shape=switch;whiteSpace=wrap;html=1;fillColor=#f8cecc;strokeColor=#b85450;" parent="WIyWlLk6GJQsqaUBKTNV-1" vertex="1">
          <mxGeometry x="1030" y="385" width="18" height="18" as="geometry" />
        </mxCell>
        <mxCell id="s9P6Q5YSlAMFLzRuQU9E-7" value="" style="shape=switch;whiteSpace=wrap;html=1;fillColor=#f8cecc;strokeColor=#b85450;" parent="WIyWlLk6GJQsqaUBKTNV-1" vertex="1">
          <mxGeometry x="1020" y="570" width="18" height="18" as="geometry" />
        </mxCell>
        <mxCell id="s9P6Q5YSlAMFLzRuQU9E-8" value="" style="shape=switch;whiteSpace=wrap;html=1;fillColor=#f8cecc;strokeColor=#b85450;" parent="WIyWlLk6GJQsqaUBKTNV-1" vertex="1">
          <mxGeometry x="1030" y="700" width="18" height="18" as="geometry" />
        </mxCell>
        <mxCell id="s9P6Q5YSlAMFLzRuQU9E-9" value="" style="shape=switch;whiteSpace=wrap;html=1;fillColor=#f8cecc;strokeColor=#b85450;" parent="WIyWlLk6GJQsqaUBKTNV-1" vertex="1">
          <mxGeometry x="1030" y="830" width="18" height="18" as="geometry" />
        </mxCell>
        <mxCell id="s9P6Q5YSlAMFLzRuQU9E-10" value="" style="shape=switch;whiteSpace=wrap;html=1;fillColor=#f8cecc;strokeColor=#b85450;" parent="WIyWlLk6GJQsqaUBKTNV-1" vertex="1">
          <mxGeometry x="1020" y="950" width="18" height="18" as="geometry" />
        </mxCell>
        <mxCell id="s9P6Q5YSlAMFLzRuQU9E-11" value="" style="shape=switch;whiteSpace=wrap;html=1;fillColor=#f8cecc;strokeColor=#b85450;" parent="WIyWlLk6GJQsqaUBKTNV-1" vertex="1">
          <mxGeometry x="1020" y="1065" width="18" height="18" as="geometry" />
        </mxCell>
      </root>
    </mxGraphModel>
  </diagram>
</mxfile>
